<svg width="13" height="13" viewBox="0 0 13 13" fill="none" xmlns="http://www.w3.org/2000/svg">
<path d="M11.0962 1.90381C9.86852 0.676127 8.23621 0 6.5 0C4.76379 0 3.13148 0.676127 1.90379 1.90381C0.676102 3.1315 0 4.76379 0 6.5C0 8.23621 0.676102 9.86852 1.90379 11.0962C3.13148 12.3238 4.76379 13 6.5 13C8.23621 13 9.86852 12.3239 11.0962 11.0962C12.3239 9.8685 13 8.23621 13 6.5C13 4.76379 12.3239 3.13148 11.0962 1.90381ZM6.5 11.7242C3.61936 11.7242 1.27583 9.38062 1.27583 6.5C1.27583 6.49528 1.27598 6.49061 1.27601 6.48593C1.27601 6.48474 1.27583 6.4836 1.27583 6.4824C1.27583 6.4804 1.27608 6.47847 1.27613 6.47649C1.2888 3.63038 3.58886 1.31483 6.42901 1.27674C6.43495 1.27646 6.44084 1.27585 6.44686 1.27585C6.45046 1.27585 6.45397 1.27629 6.45755 1.27639C6.47171 1.27629 6.48583 1.27585 6.50003 1.27585C9.38067 1.27585 11.7242 3.61941 11.7242 6.50003C11.7242 9.38064 9.38064 11.7242 6.5 11.7242Z" fill="#373737"/>
<path d="M10.4682 6.81384C10.2557 6.81384 10.0835 6.64164 10.0835 6.42922C10.0835 6.2168 10.2557 6.0446 10.4682 6.0446H10.9318C10.714 3.90986 8.98273 2.21638 6.83138 2.05738V2.46097C6.83138 2.67338 6.65918 2.84558 6.44677 2.84558C6.23435 2.84558 6.06215 2.67338 6.06215 2.46097V2.06657C3.94264 2.27427 2.25434 3.97346 2.06333 6.09774H2.47852C2.69093 6.09774 2.86313 6.26994 2.86313 6.48236C2.86313 6.69478 2.69093 6.86698 2.47852 6.86698H2.06018C2.23703 9.02546 3.95917 10.7529 6.11532 10.9382V10.4506C6.11532 10.2382 6.28752 10.066 6.49993 10.066C6.71235 10.066 6.88455 10.2382 6.88455 10.4506V10.9382C9.05834 10.7514 10.791 8.99702 10.9437 6.81384H10.4682ZM8.05689 5.48697L6.77192 6.77197C6.69978 6.8441 6.60198 6.88463 6.49996 6.88463C6.39797 6.88463 6.30011 6.8441 6.228 6.77197L3.99126 4.53523C3.84105 4.38504 3.84105 4.14152 3.99126 3.99131C4.14145 3.8411 4.38497 3.8411 4.53518 3.99131L6.49999 5.95609L7.51302 4.94305C7.66321 4.79284 7.90673 4.79284 8.05694 4.94305C8.2071 5.09324 8.2071 5.33679 8.05689 5.48697Z" fill="#373737"/>
</svg>
