<svg width="16" height="14" viewBox="0 0 16 14" fill="none" xmlns="http://www.w3.org/2000/svg">
<path d="M13.8894 1.98456C13.1647 1.19853 12.1702 0.765625 11.0891 0.765625C10.281 0.765625 9.54086 1.02112 8.88931 1.52495C8.56055 1.77927 8.26265 2.09041 8 2.45357C7.73746 2.09052 7.43945 1.77927 7.11058 1.52495C6.45914 1.02112 5.71904 0.765625 4.9109 0.765625C3.82976 0.765625 2.83524 1.19853 2.11052 1.98456C1.39445 2.7614 1 3.82268 1 4.97304C1 6.15704 1.44124 7.24086 2.38855 8.38396C3.23599 9.40646 4.45396 10.4445 5.86441 11.6464C6.34602 12.0569 6.89194 12.5222 7.45879 13.0178C7.60854 13.1489 7.80069 13.2211 8 13.2211C8.1992 13.2211 8.39146 13.1489 8.541 13.018C9.10785 12.5223 9.65408 12.0568 10.1359 11.6461C11.5461 10.4444 12.7641 9.40646 13.6116 8.38385C14.5589 7.24086 15 6.15704 15 4.97293C15 3.82268 14.6055 2.7614 13.8894 1.98456Z" fill="#484848"/>
</svg>
