<svg width="13" height="13" viewBox="0 0 13 13" fill="none" xmlns="http://www.w3.org/2000/svg">
<path d="M0.383398 8.40429C0.87877 9.58648 1.82508 10.5567 3.04688 11.066V11.832C3.04688 12.0423 3.2175 12.2129 3.42773 12.2129H9.57227C9.7825 12.2129 9.95312 12.0423 9.95312 11.832V11.066C11.1749 10.5567 12.1212 9.58648 12.6166 8.40429H0.383398ZM12.6191 6.11914H0.380859C0.170625 6.11914 0 6.28976 0 6.5C0 6.89051 0.0462109 7.2734 0.13457 7.64258H12.8654C12.9538 7.2734 13 6.89051 13 6.5C13 6.28976 12.8294 6.11914 12.6191 6.11914Z" fill="#373737"/>
<path d="M3.9455 4.48416C3.79676 4.33542 3.79676 4.09429 3.9455 3.94555C4.21763 3.67339 4.21766 3.23291 3.9455 2.96072C3.37697 2.3922 3.37697 1.4672 3.9455 0.898675C4.09421 0.749937 4.33537 0.749937 4.48411 0.898675C4.63284 1.04741 4.63284 1.28855 4.48411 1.43729C4.21197 1.70945 4.21194 2.14993 4.48411 2.42211C5.05263 2.99063 5.05263 3.91564 4.48411 4.48416C4.33539 4.63287 4.09421 4.6329 3.9455 4.48416Z" fill="#373737"/>
<path d="M6.23065 4.48416C6.08191 4.33542 6.08191 4.09429 6.23065 3.94555C6.50279 3.67339 6.50281 3.23291 6.23065 2.96072C5.66213 2.3922 5.66213 1.4672 6.23065 0.898675C6.37936 0.749937 6.62052 0.749937 6.76926 0.898675C6.918 1.04741 6.918 1.28855 6.76926 1.43729C6.49713 1.70945 6.4971 2.14993 6.76926 2.42211C7.33778 2.99063 7.33778 3.91564 6.76926 4.48416C6.62055 4.63287 6.37936 4.6329 6.23065 4.48416Z" fill="#373737"/>
<path d="M8.51584 4.48416C8.3671 4.33542 8.3671 4.09429 8.51584 3.94555C8.78795 3.67341 8.788 3.23291 8.51584 2.96072C7.94732 2.3922 7.94732 1.4672 8.51584 0.898675C8.66455 0.749937 8.90571 0.749937 9.05445 0.898675C9.20318 1.04741 9.20318 1.28855 9.05445 1.43729C8.78234 1.70942 8.78228 2.14993 9.05445 2.42211C9.62297 2.99063 9.62297 3.91564 9.05445 4.48416C8.90573 4.63287 8.66455 4.6329 8.51584 4.48416Z" fill="#373737"/>
</svg>
