<svg width="20" height="18" viewBox="0 0 20 18" fill="none" xmlns="http://www.w3.org/2000/svg">
<path d="M18.7667 8.3691C18.6086 8.18266 14.8302 3.80969 10.0001 3.80969C5.16983 3.80969 1.39163 8.18266 1.23316 8.36928C0.922251 8.73484 0.922251 9.26526 1.23334 9.63118C1.39163 9.81761 5.16983 14.1904 10.0001 14.1904C14.8302 14.1904 18.6086 9.81725 18.7669 9.63081C19.0778 9.26526 19.0778 8.73483 18.7667 8.3691ZM11.4755 6.43658C11.8003 6.25929 12.2532 6.46272 12.487 6.89079C12.7208 7.31903 12.6469 7.80998 12.3221 7.98727C11.9975 8.16475 11.5444 7.96113 11.3105 7.53307C11.0769 7.10482 11.1505 6.61388 11.4755 6.43658ZM10.0001 12.6061C6.62603 12.6061 3.78657 10.0148 2.80377 9.00005C3.46744 8.31463 4.97847 6.91107 6.92853 6.07176C6.54816 6.65043 6.32517 7.34188 6.32517 8.08615C6.32517 10.1157 7.97036 11.7609 9.99993 11.7609C12.0295 11.7609 13.6749 10.1157 13.6749 8.08615C13.6749 7.34188 13.4521 6.65043 13.0717 6.07176C15.0218 6.91126 16.5326 8.31463 17.1963 9.00005C16.2135 10.0154 13.374 12.6061 10.0001 12.6061Z" fill="#484848"/>
</svg>
